<svg width="24" height="24" viewBox="0 0 24 24" fill="none" xmlns="http://www.w3.org/2000/svg">
<path d="M17.4999 12C18.9586 12 20.3575 12.5795 21.389 13.6109C22.4204 14.6424 22.9999 16.0413 22.9999 17.5C22.9999 18.9587 22.4204 20.3576 21.389 21.3891C20.3575 22.4205 18.9586 23 17.4999 23C16.0412 23 14.6423 22.4205 13.6108 21.3891C12.5794 20.3576 11.9999 18.9587 11.9999 17.5C11.9999 16.0413 12.5794 14.6424 13.6108 13.6109C14.6423 12.5795 16.0412 12 17.4999 12ZM12.0229 13.999C11.3534 15.0435 10.9983 16.2584 10.9999 17.499C10.9999 19.144 11.6099 20.645 12.6169 21.79C11.8149 21.93 10.9419 22 9.99991 22C7.10991 22 4.87191 21.344 3.30991 20C2.90037 19.6481 2.57166 19.2119 2.34626 18.7212C2.12086 18.2305 2.00408 17.697 2.00391 17.157V16.249C2.00417 15.6524 2.24134 15.0804 2.66327 14.6587C3.0852 14.2369 3.65734 14 4.25391 14H12.0229V13.999ZM17.4999 13.999L17.4099 14.007C17.31 14.0253 17.218 14.0735 17.1462 14.1453C17.0744 14.2171 17.0262 14.3091 17.0079 14.409L16.9999 14.499V16.999H14.4979L14.4079 17.008C14.308 17.0263 14.216 17.0745 14.1442 17.1463C14.0724 17.2181 14.0242 17.3101 14.0059 17.41L13.9979 17.5L14.0059 17.59C14.0243 17.6897 14.0727 17.7815 14.1445 17.8531C14.2163 17.9247 14.3081 17.9728 14.4079 17.991L14.4979 18L17.0009 17.999V20.503L17.0089 20.593C17.0272 20.693 17.0756 20.7851 17.1476 20.8569C17.2196 20.9288 17.3118 20.9769 17.4119 20.995L17.5019 21.003L17.5919 20.995C17.6916 20.9766 17.7834 20.9282 17.855 20.8564C17.9266 20.7846 17.9747 20.6928 17.9929 20.593L18.0019 20.503L17.9999 17.999H20.5039L20.5939 17.991C20.6938 17.9727 20.7858 17.9245 20.8576 17.8527C20.9294 17.7809 20.9777 17.6889 20.9959 17.589L21.0039 17.499L20.9959 17.409C20.9775 17.3093 20.9291 17.2175 20.8574 17.1459C20.7856 17.0743 20.6937 17.0262 20.5939 17.008L20.5039 17L17.9999 16.998V14.498L17.9919 14.408C17.9737 14.3081 17.9254 14.2161 17.8536 14.1443C17.7818 14.0725 17.6898 14.0243 17.5899 14.006L17.4999 13.998V13.999ZM9.99991 2C10.1813 1.99977 10.3567 2.06529 10.4935 2.18444C10.6303 2.30359 10.7192 2.46828 10.7439 2.648L10.7509 2.75L10.7499 3.499H14.2499C14.8466 3.499 15.4189 3.73605 15.8409 4.15801C16.2629 4.57997 16.4999 5.15226 16.4999 5.749V10.254C16.4999 10.555 16.4409 10.843 16.3339 11.105C15.2317 11.3043 14.2003 11.7868 13.3409 12.505H5.75091C5.15417 12.505 4.58187 12.2679 4.15992 11.846C3.73796 11.424 3.50091 10.8517 3.50091 10.255V5.75C3.50091 5.15344 3.73782 4.58129 4.15956 4.15936C4.5813 3.73744 5.15334 3.50027 5.74991 3.5L9.24891 3.499V2.75C9.24893 2.58579 9.30285 2.42612 9.40239 2.29551C9.50193 2.1649 9.64158 2.07057 9.79991 2.027L9.89791 2.007L9.99991 2ZM7.74991 6.5C7.58168 6.49327 7.41383 6.52059 7.25642 6.58032C7.09901 6.64006 6.95529 6.73097 6.83389 6.84762C6.71248 6.96426 6.61589 7.10423 6.54991 7.25912C6.48393 7.41401 6.44992 7.58064 6.44992 7.749C6.44992 7.91736 6.48393 8.08399 6.54991 8.23888C6.61589 8.39377 6.71248 8.53374 6.83389 8.65038C6.95529 8.76703 7.09901 8.85795 7.25642 8.91768C7.41383 8.97741 7.58168 9.00473 7.74991 8.998C8.07251 8.98509 8.37761 8.84785 8.6013 8.61503C8.82499 8.38221 8.94992 8.07187 8.94992 7.749C8.94992 7.42614 8.82499 7.11579 8.6013 6.88297C8.37761 6.65015 8.07251 6.51291 7.74991 6.5ZM12.2419 6.5C12.0737 6.49327 11.9058 6.52059 11.7484 6.58032C11.591 6.64006 11.4473 6.73097 11.3259 6.84762C11.2045 6.96426 11.1079 7.10423 11.0419 7.25912C10.9759 7.41401 10.9419 7.58064 10.9419 7.749C10.9419 7.91736 10.9759 8.08399 11.0419 8.23888C11.1079 8.39377 11.2045 8.53374 11.3259 8.65038C11.4473 8.76703 11.591 8.85795 11.7484 8.91768C11.9058 8.97741 12.0737 9.00473 12.2419 8.998C12.5645 8.98509 12.8696 8.84785 13.0933 8.61503C13.317 8.38221 13.4419 8.07187 13.4419 7.749C13.4419 7.42614 13.317 7.11579 13.0933 6.88297C12.8696 6.65015 12.5645 6.51291 12.2419 6.5Z" fill="white"/>
</svg>
