<svg width="30" height="30" viewBox="0 0 30 30" fill="none" xmlns="http://www.w3.org/2000/svg">
<path d="M15 9.75V3H8.25C7.65326 3 7.08097 3.23705 6.65901 3.65901C6.23705 4.08097 6 4.65326 6 5.25V21.75C6 22.3467 6.23705 22.919 6.65901 23.341C7.08097 23.7629 7.65326 24 8.25 24H13.8105C13.4093 22.5869 13.3927 21.0924 13.7624 19.6707C14.132 18.2491 14.8746 16.9519 15.9132 15.9132C16.9519 14.8746 18.2491 14.132 19.6707 13.7624C21.0924 13.3927 22.5869 13.4093 24 13.8105V12H17.25C16.6533 12 16.081 11.7629 15.659 11.341C15.2371 10.919 15 10.3467 15 9.75ZM9 8.25C9 8.05109 9.07902 7.86032 9.21967 7.71967C9.36032 7.57902 9.55109 7.5 9.75 7.5H12.75C12.9489 7.5 13.1397 7.57902 13.2803 7.71967C13.421 7.86032 13.5 8.05109 13.5 8.25C13.5 8.44891 13.421 8.63968 13.2803 8.78033C13.1397 8.92098 12.9489 9 12.75 9H9.75C9.55109 9 9.36032 8.92098 9.21967 8.78033C9.07902 8.63968 9 8.44891 9 8.25ZM9.75 10.5H12.75C12.9489 10.5 13.1397 10.579 13.2803 10.7197C13.421 10.8603 13.5 11.0511 13.5 11.25C13.5 11.4489 13.421 11.6397 13.2803 11.7803C13.1397 11.921 12.9489 12 12.75 12H9.75C9.55109 12 9.36032 11.921 9.21967 11.7803C9.07902 11.6397 9 11.4489 9 11.25C9 11.0511 9.07902 10.8603 9.21967 10.7197C9.36032 10.579 9.55109 10.5 9.75 10.5ZM9 14.25C9 14.0511 9.07902 13.8603 9.21967 13.7197C9.36032 13.579 9.55109 13.5 9.75 13.5H12.75C12.9489 13.5 13.1397 13.579 13.2803 13.7197C13.421 13.8603 13.5 14.0511 13.5 14.25C13.5 14.4489 13.421 14.6397 13.2803 14.7803C13.1397 14.921 12.9489 15 12.75 15H9.75C9.55109 15 9.36032 14.921 9.21967 14.7803C9.07902 14.6397 9 14.4489 9 14.25ZM8.25 25.5H14.4C14.6745 26.037 15.006 26.5395 15.3855 27H8.25C6.85761 27 5.52226 26.4469 4.53769 25.4623C3.55312 24.4777 3 23.1424 3 21.75V20.25C3 20.0511 3.07902 19.8603 3.21967 19.7197C3.36032 19.579 3.55109 19.5 3.75 19.5C3.94891 19.5 4.13968 19.579 4.28033 19.7197C4.42098 19.8603 4.5 20.0511 4.5 20.25V21.75C4.5 22.7446 4.89509 23.6984 5.59835 24.4016C6.30161 25.1049 7.25544 25.5 8.25 25.5ZM16.5 9.75V3.375L23.625 10.5H17.25C17.0511 10.5 16.8603 10.421 16.7197 10.2803C16.579 10.1397 16.5 9.94891 16.5 9.75ZM28.5 21.75C28.5 23.5402 27.7888 25.2571 26.523 26.523C25.2571 27.7888 23.5402 28.5 21.75 28.5C19.9598 28.5 18.2429 27.7888 16.977 26.523C15.7112 25.2571 15 23.5402 15 21.75C15 19.9598 15.7112 18.2429 16.977 16.977C18.2429 15.7112 19.9598 15 21.75 15C23.5402 15 25.2571 15.7112 26.523 16.977C27.7888 18.2429 28.5 19.9598 28.5 21.75ZM22.5 18.75C22.5 18.5511 22.421 18.3603 22.2803 18.2197C22.1397 18.079 21.9489 18 21.75 18C21.5511 18 21.3603 18.079 21.2197 18.2197C21.079 18.3603 21 18.5511 21 18.75V21H18.75C18.5511 21 18.3603 21.079 18.2197 21.2197C18.079 21.3603 18 21.5511 18 21.75C18 21.9489 18.079 22.1397 18.2197 22.2803C18.3603 22.421 18.5511 22.5 18.75 22.5H21V24.75C21 24.9489 21.079 25.1397 21.2197 25.2803C21.3603 25.421 21.5511 25.5 21.75 25.5C21.9489 25.5 22.1397 25.421 22.2803 25.2803C22.421 25.1397 22.5 24.9489 22.5 24.75V22.5H24.75C24.9489 22.5 25.1397 22.421 25.2803 22.2803C25.421 22.1397 25.5 21.9489 25.5 21.75C25.5 21.5511 25.421 21.3603 25.2803 21.2197C25.1397 21.079 24.9489 21 24.75 21H22.5V18.75Z" fill="white"/>
</svg>
